<?xml version="1.0" standalone="no"?>
<!DOCTYPE svg PUBLIC "-//W3C//DTD SVG 20010904//EN"
 "http://www.w3.org/TR/2001/REC-SVG-20010904/DTD/svg10.dtd">
<svg version="1.0" xmlns="http://www.w3.org/2000/svg"
 width="300.000000pt" height="200.000000pt" viewBox="0 0 300.000000 200.000000"
 preserveAspectRatio="xMidYMid meet">
<metadata>
Created by potrace 1.10, written by Peter Selinger 2001-2011
</metadata>
<g transform="translate(0.000000,200.000000) scale(0.100000,-0.100000)"
fill="#000000" stroke="none">
<path d="M490 420 c-17 -6 -1 -8 53 -9 50 -1 76 3 72 9 -7 12 -89 12 -125 0z"/>
<path d="M300 410 c20 -13 123 -13 115 0 -3 6 -34 10 -68 10 -44 0 -58 -3 -47
-10z"/>
<path d="M78 389 c-9 -6 -8 -9 7 -9 11 0 31 -3 44 -7 16 -4 22 -2 18 4 -9 15
-53 22 -69 12z"/>
<path d="M620 379 c0 -5 -17 -8 -37 -8 -21 1 -72 -4 -113 -9 -83 -12 -248 -5
-268 11 -9 7 -16 7 -24 -1 -15 -15 55 -24 200 -26 104 -1 247 9 279 19 6 2 14
1 18 -3 3 -4 30 -11 59 -17 40 -8 55 -8 64 2 15 15 16 33 2 33 -5 0 -10 -5
-10 -11 0 -10 -84 -3 -105 10 -16 9 -65 10 -65 0z"/>
<path d="M935 363 c-28 -7 -63 -13 -80 -13 -16 0 -37 -5 -45 -11 -11 -7 7 -8
60 -4 164 13 359 8 505 -15 78 -12 359 -28 550 -31 326 -6 1075 2 1075 12 0
15 -440 26 -575 14 -123 -11 -335 -17 -335 -9 0 13 -50 14 -50 0 -1 -6 -7 3
-15 19 -8 18 -14 23 -14 14 -1 -10 -10 -17 -23 -18 -13 0 -40 -3 -62 -7 -27
-5 -41 -3 -47 7 -7 11 -9 11 -9 1 0 -8 -5 -10 -12 -6 -18 12 -58 11 -58 -1 0
-5 -5 -3 -10 5 -8 13 -10 12 -10 -4 0 -13 -3 -16 -12 -8 -8 5 -22 6 -33 1 -30
-11 -35 -11 -35 6 0 11 -8 14 -35 9 -19 -3 -45 -2 -58 2 l-22 8 25 7 c16 5 0
7 -47 8 -40 1 -73 -2 -73 -7 0 -7 -108 1 -180 13 -19 4 -66 8 -105 10 -38 1
-104 5 -145 7 -44 2 -96 -1 -125 -9z"/>
</g>
</svg>
